<mxfile host="app.diagrams.net" modified="2023-06-12T02:17:30.045Z" agent="Mozilla/5.0 (Windows NT 10.0; Win64; x64) AppleWebKit/537.36 (KHTML, like Gecko) Chrome/114.0.0.0 Safari/537.36 Edg/114.0.1823.43" version="21.3.8" etag="xOwCelMOUvbAwRcjxuY2" type="github">
  <diagram name="第 1 页" id="g16UfrODGCKMhR40lJET">
    <mxGraphModel>
      <root>
        <mxCell id="0" />
        <mxCell id="1" parent="0" />
      </root>
    </mxGraphModel>
  </diagram>
</mxfile>
